<?xml version="1.0" encoding="UTF-8"?>
<svg version="1.1" xmlns="http://www.w3.org/2000/svg" width="1000" height="330">
<path d="M0 0 C1.6748761 1.40142694 3.34263409 2.81227191 4.97265625 4.265625 C6.94136252 6.02224911 6.94136252 6.02224911 9.05859375 7.359375 C11.37658452 9.09437011 12.63337886 10.43228015 14 13 C14.47605726 17.76637817 13.94029693 22.34259775 13.35302734 27.07080078 C12.93220618 30.56251053 12.5841506 34.05867366 12.23828125 37.55859375 C11.52911325 44.70986405 10.77503506 51.8555329 10 59 C11.98 59.495 11.98 59.495 14 60 C14.59322866 58.13774007 15.18561199 56.27520818 15.7746582 54.41162109 C16.30816677 52.73620251 16.84992703 51.06339304 17.39916992 49.39306641 C18.95319507 44.6035688 20.29223901 39.85611266 21.359375 34.93359375 C25.07558815 18.85965065 25.07558815 18.85965065 31.12109375 14.54296875 C36.00979247 11.69005604 41.25535043 9 47 9 C55.27039581 25.14569357 55.27039581 25.14569357 53.31494141 32.61767578 C50.85419769 37.83174225 47.37103617 42.30628233 43.76416016 46.77636719 C41.04160514 50.20800725 38.66076004 53.84646472 36.25 57.5 C35.82082275 58.1172998 35.39164551 58.73459961 34.94946289 59.37060547 C32.52050484 62.84987666 32.52050484 62.84987666 32 67 C34.44496043 68.71711243 34.44496043 68.71711243 37 70 C37.36931641 69.15115234 37.36931641 69.15115234 37.74609375 68.28515625 C39.21536224 65.60751742 40.97752435 63.66956388 43.0625 61.4375 C47.13473609 56.99863173 50.98275795 52.42817799 54.76171875 47.73828125 C55.50035156 46.83464844 56.23898438 45.93101563 57 45 C57.39735352 44.38165283 57.79470703 43.76330566 58.20410156 43.1262207 C60.34655026 40.07203419 61.80483641 38.26195524 65.54077148 37.44311523 C68.51540222 37.31122003 71.40287372 37.38800742 74.375 37.5625 C75.39722656 37.59408203 76.41945312 37.62566406 77.47265625 37.65820312 C79.98475434 37.74037456 82.49086534 37.85515652 85 38 C85.52115775 54.62818932 85.52115775 54.62818932 81.64111328 59.81738281 C78.00685762 63.09108457 73.73088201 65.35617415 69.43798828 67.65332031 C64.96427885 70.12447806 60.74678137 72.97502565 56.5 75.8125 C55.65703369 76.34029053 54.81406738 76.86808105 53.94555664 77.41186523 C52.78141235 78.17672241 52.78141235 78.17672241 51.59375 78.95703125 C50.55250977 79.62182495 50.55250977 79.62182495 49.49023438 80.30004883 C47.67509936 82.02496103 47.67509936 82.02496103 47.77539062 85.19018555 C47.88657227 86.5810437 47.88657227 86.5810437 48 88 C51.76901975 86.26086881 55.53685428 84.51920021 59.30371094 82.77539062 C60.57944674 82.18521079 61.85547814 81.5956694 63.13183594 81.00683594 C64.37163704 80.43477023 65.61101789 79.86179286 66.84997559 79.28790283 C68.08672793 78.71514825 69.32444504 78.14447237 70.56311035 77.5758667 C75.60898969 75.23987327 80.47525634 72.62328456 85.30761719 69.87548828 C89.47042846 68.52185741 92.13199088 70.17384548 95.96630859 71.86962891 C96.52141113 72.15241699 97.07651367 72.43520508 97.6484375 72.7265625 C98.56689453 73.190625 98.56689453 73.190625 99.50390625 73.6640625 C100.43009766 74.13972656 100.43009766 74.13972656 101.375 74.625 C102.01566406 74.94984375 102.65632812 75.2746875 103.31640625 75.609375 C104.87947501 76.40257407 106.44000622 77.20077031 108 78 C107.59179373 79.3359478 107.17280893 80.66860168 106.75 82 C106.40195312 83.11375 106.40195312 83.11375 106.046875 84.25 C105.70140625 85.1575 105.3559375 86.065 105 87 C104.80204834 87.66032227 104.60409668 88.32064453 104.40014648 89.00097656 C103.51193833 91.39245313 102.67175498 93.06299678 101 95 C97.31081183 96.65545453 93.54544369 97.17393347 89.5625 97.75 C87.90939819 98.03266724 87.90939819 98.03266724 86.22290039 98.32104492 C83.94541099 98.71013169 81.66561402 99.08593392 79.38378906 99.44873047 C74.21303505 100.29112315 69.07860096 101.30747948 63.9375 102.3125 C60.95902278 102.87871609 57.97950115 103.43918958 55 104 C54.67 105.98 54.34 107.96 54 110 C54.85325111 109.96669083 54.85325111 109.96669083 55.72373962 109.93270874 C61.67724362 109.7104149 67.62955951 109.56023671 73.58618164 109.45068359 C75.80476806 109.40058075 78.02302732 109.33247435 80.24047852 109.24560547 C99.69710641 108.50281932 99.69710641 108.50281932 104.40673828 112.12988281 C106.69415962 114.65415771 108.35437002 117.02884189 110 120 C110.84099243 121.08933838 110.84099243 121.08933838 111.69897461 122.20068359 C113 124 113 124 113 126 C110.7519076 128.17687069 108.16092298 129.92431757 105.625 131.75 C104.94566406 132.28238281 104.26632812 132.81476563 103.56640625 133.36328125 C100.73982131 135.38679907 98.41131741 136.97125034 94.86669922 137.04345703 C92.17474467 136.53860712 89.62395444 135.78856758 87 135 C85.64413145 134.65018089 84.28637047 134.30765101 82.92724609 133.97070312 C78.23403549 132.8065533 73.55457166 131.592634 68.875 130.375 C67.23443991 129.95027002 65.5938154 129.52578882 63.953125 129.1015625 C59.96800134 128.07057526 55.98376486 127.03622469 52 126 C51.67 128.31 51.34 130.62 51 133 C51.81416382 133.22260498 51.81416382 133.22260498 52.64477539 133.44970703 C60.06306086 135.56965012 67.23716967 138.24899683 74.40698242 141.07861328 C75.77032525 141.61332824 77.13661566 142.14058307 78.50561523 142.66064453 C80.5090751 143.42184979 82.50298666 144.20433384 84.49609375 144.9921875 C85.67357178 145.44964355 86.8510498 145.90709961 88.06420898 146.37841797 C93.47108696 149.36490308 94.70880866 154.52762091 96.6875 160.125 C97.12449219 161.34445313 97.56148437 162.56390625 98.01171875 163.8203125 C99 167 99 167 99 170 C81.28515262 175.33947926 81.28515262 175.33947926 74.87402344 173.33544922 C70.97981625 171.13751102 67.95849367 167.98488865 64.85888672 164.80273438 C61.28241244 161.33429649 57.26266223 158.40073959 53.3125 155.375 C52.53293945 154.75963379 51.75337891 154.14426758 50.95019531 153.51025391 C50.22026367 152.93710449 49.49033203 152.36395508 48.73828125 151.7734375 C48.08899658 151.26216309 47.43971191 150.75088867 46.77075195 150.22412109 C44.90683107 148.81375159 44.90683107 148.81375159 42 148 C41.34 148.99 40.68 149.98 40 151 C43.38209983 154.9577764 46.78357646 158.85099458 50.5 162.5 C53.5857447 165.53064212 56.4077646 168.7298439 59.2265625 172.0078125 C61.57478086 174.64567894 64.07561223 177.10428982 66.6171875 179.5546875 C69.97910732 183.0685585 69.13483726 187.14245757 69.1015625 191.734375 C68.96302579 196.18886299 68.52710169 200.57764996 68 205 C65.08318736 204.35482025 62.16654627 203.7088818 59.25 203.0625 C58.425 202.88009766 57.6 202.69769531 56.75 202.50976562 C55.55117188 202.24389648 55.55117188 202.24389648 54.328125 201.97265625 C53.5949707 201.81031494 52.86181641 201.64797363 52.10644531 201.48071289 C51.06375488 201.24276001 51.06375488 201.24276001 50 201 C49.33258789 200.96148926 48.66517578 200.92297852 47.97753906 200.88330078 C44.62570065 199.38614629 43.56335962 196.05162565 42.03125 192.89453125 C41.66906372 192.17770676 41.30687744 191.46088226 40.93371582 190.72233582 C39.77597279 188.42538974 38.63732652 186.11961374 37.5 183.8125 C36.35931337 181.52509775 35.21469439 179.23975661 34.06628418 176.95622253 C33.35309111 175.53527993 32.64487381 174.11182509 31.94250488 172.6855011 C29.89078217 168.56497061 27.63229015 164.77786459 25 161 C23.02 161.99 23.02 161.99 21 163 C21.63482583 168.04651981 23.13252642 172.37080698 24.9765625 177.06640625 C25.57071024 178.61898847 26.16444803 180.17172763 26.7578125 181.72460938 C27.69218217 184.15136136 28.63043917 186.57643158 29.57617188 188.9987793 C30.49165125 191.35052399 31.39131105 193.70784779 32.2890625 196.06640625 C32.71863754 197.14783653 32.71863754 197.14783653 33.15689087 198.25111389 C34.65408138 202.21646088 35.47712303 204.95178604 34 209 C32.96850586 210.8527832 32.96850586 210.8527832 31.71484375 212.55078125 C31.26689453 213.16630859 30.81894531 213.78183594 30.35742188 214.41601562 C29.88884766 215.04185547 29.42027344 215.66769531 28.9375 216.3125 C28.46505859 216.95767578 27.99261719 217.60285156 27.50585938 218.26757812 C26.34490296 219.85070051 25.17347664 221.42613569 24 223 C9.62780257 216.0326463 9.62780257 216.0326463 7.19946289 210.01678467 C5.79188694 204.41480138 5.55146002 198.68421714 5.25 192.9375 C5.11702104 191.21509811 4.97903584 189.49307508 4.8359375 187.77148438 C4.2628878 180.50217321 3.94016155 173.29255275 4 166 C1.69 166 -0.62 166 -3 166 C-3.03758423 167.13091064 -3.03758423 167.13091064 -3.07592773 168.28466797 C-3.11145752 169.34314941 -3.1469873 170.40163086 -3.18359375 171.4921875 C-3.22234619 172.66394531 -3.26109863 173.83570313 -3.30102539 175.04296875 C-3.3924864 177.61107609 -3.49464917 180.17882326 -3.60717773 182.74609375 C-3.84734249 188.33794748 -4.08033161 193.85576062 -3.7265625 199.4453125 C-3.23421919 209.91248794 -3.23421919 209.91248794 -6.61328125 213.90722656 C-10.99767816 217.94044605 -15.84945521 221.03858191 -21 224 C-26.66676673 221.99430503 -29.74749744 216.48008175 -32.46337891 211.42529297 C-35.22554002 204.99220699 -32.99402625 199.51453181 -30.62304688 193.27539062 C-29.97974518 191.70365605 -29.33454733 190.13269629 -28.6875 188.5625 C-28.07934704 186.96644319 -27.47708527 185.36812866 -26.88085938 183.76757812 C-26.03647174 181.5059953 -25.18568607 179.25099612 -24.28703308 177.01039124 C-22.43801422 172.39567935 -21.11592191 167.84695752 -20 163 C-21.98 162.01 -21.98 162.01 -24 161 C-25.27882558 163.20400062 -26.54862346 165.41242614 -27.8125 167.625 C-28.21339844 168.32197998 -28.61429687 169.01895996 -29.02734375 169.73706055 C-31.45737657 174.03294487 -33.67285081 178.36832117 -35.73046875 182.85546875 C-36.19155029 183.84272949 -36.65263184 184.82999023 -37.12768555 185.84716797 C-38.02868742 187.79407577 -38.90481397 189.75272835 -39.75317383 191.72314453 C-42.84308594 198.33266428 -42.84308594 198.33266428 -46.1784668 200.2565918 C-48.45050575 201.03098525 -50.64076446 201.56973517 -53 202 C-53.89332031 202.24105469 -54.78664062 202.48210937 -55.70703125 202.73046875 C-56.74923828 202.95669922 -56.74923828 202.95669922 -57.8125 203.1875 C-58.52019531 203.34605469 -59.22789063 203.50460937 -59.95703125 203.66796875 C-62 204 -62 204 -66 204 C-66.33745354 201.60468244 -66.6700829 199.20885732 -67 196.8125 C-67.09539062 196.13896484 -67.19078125 195.46542969 -67.2890625 194.77148438 C-67.55137979 192.8509471 -67.77652879 190.92544395 -68 189 C-68.12246094 188.13117188 -68.24492188 187.26234375 -68.37109375 186.3671875 C-67.80814631 182.77617539 -65.53273868 180.79249284 -63.0625 178.3125 C-62.04507646 177.24917272 -61.02815626 176.18536362 -60.01171875 175.12109375 C-59.5017334 174.59499512 -58.99174805 174.06889648 -58.46630859 173.52685547 C-56.38237418 171.35687115 -54.37827105 169.1193727 -52.375 166.875 C-51.30572266 165.68390625 -51.30572266 165.68390625 -50.21484375 164.46875 C-49.48394531 163.6540625 -48.75304687 162.839375 -48 162 C-46.31278465 160.12474385 -44.62529093 158.24973813 -42.9375 156.375 C-42.18339844 155.53710938 -41.42929688 154.69921875 -40.65234375 153.8359375 C-39.83443359 152.92714844 -39.83443359 152.92714844 -39 152 C-40.3089572 148.87802522 -40.3089572 148.87802522 -43 147 C-51.32880168 153.49386256 -59.58896438 160.06172958 -67.75585938 166.75854492 C-68.71782227 167.54515503 -68.71782227 167.54515503 -69.69921875 168.34765625 C-70.26471436 168.81179932 -70.83020996 169.27594238 -71.4128418 169.75415039 C-75.53464027 172.9895815 -75.53464027 172.9895815 -78.09375 173.046875 C-79.28484375 172.89992187 -79.28484375 172.89992187 -80.5 172.75 C-81.37398437 172.64300781 -82.24796875 172.53601563 -83.1484375 172.42578125 C-87.78805935 171.7330158 -92.39671257 170.90140419 -97 170 C-96.78707477 167.28520332 -96.4205258 164.68691727 -96 162 C-95.9278125 161.01451172 -95.855625 160.02902344 -95.78125 159.01367188 C-95.01472417 154.34970036 -94.08981058 150.52592493 -90.1036377 147.61532593 C-84.11603943 144.29046239 -77.66830978 142.02740854 -71.25 139.6875 C-69.29121584 138.93226513 -67.33415662 138.17254017 -65.37890625 137.40820312 C-60.60431935 135.5529426 -55.810279 133.76053165 -51 132 C-51.495 128.535 -51.495 128.535 -52 125 C-53.0209375 125.29132813 -54.041875 125.58265625 -55.09375 125.8828125 C-60.05380941 127.28730285 -65.0256717 128.6470434 -70 130 C-71.03205566 130.28311035 -72.06411133 130.5662207 -73.12744141 130.85791016 C-76.35144915 131.73506211 -79.58090727 132.58876409 -82.8125 133.4375 C-84.359375 133.86216553 -84.359375 133.86216553 -85.9375 134.29541016 C-86.91332031 134.54726074 -87.88914062 134.79911133 -88.89453125 135.05859375 C-89.75925049 135.28861084 -90.62396973 135.51862793 -91.51489258 135.75561523 C-97.10572563 136.30541619 -101.11754249 132.63717838 -105.3125 129.375 C-105.86228516 128.95476562 -106.41207031 128.53453125 -106.97851562 128.1015625 C-108.32292168 127.07279961 -109.66201413 126.0370991 -111 125 C-110.07456134 118.90668302 -105.79739149 113.87293933 -101.08734131 110.15209961 C-93.71480123 106.08285587 -83.40479528 107.85787049 -75.3125 108.25 C-73.14663267 108.3102755 -70.98060378 108.36501388 -68.81445312 108.4140625 C-63.53940895 108.54547672 -58.27046524 108.74551035 -53 109 C-53 107.02 -53 105.04 -53 103 C-54.31025146 102.86295654 -55.62050293 102.72591309 -56.97045898 102.5847168 C-63.91873606 101.80886048 -70.76209143 100.62379442 -77.62036133 99.27563477 C-79.24608114 98.96732821 -80.87627435 98.68172788 -82.51000977 98.41918945 C-96.79862394 96.10308709 -96.79862394 96.10308709 -100.90185547 90.68115234 C-103.58099351 86.43140991 -106 82.11027673 -106 77 C-103.48955789 75.62272263 -100.96962451 74.27383708 -98.4375 72.9375 C-97.73302734 72.54755859 -97.02855469 72.15761719 -96.30273438 71.75585938 C-91.43556368 69.22134191 -88.46401995 68.38949037 -83 70 C-79.32647292 71.58523046 -75.79189408 73.39171858 -72.25 75.25 C-60.15693121 82.53942345 -60.15693121 82.53942345 -47 86 C-47 85.01 -47 84.02 -47 83 C-49.29471593 80.83093783 -49.29471593 80.83093783 -52.375 78.625 C-52.94138184 78.20089844 -53.50776367 77.77679688 -54.09130859 77.33984375 C-56.05148754 75.88003591 -58.02416654 74.43854542 -60 73 C-60.77021484 72.43764648 -61.54042969 71.87529297 -62.33398438 71.29589844 C-71.57514419 64.51708798 -71.57514419 64.51708798 -81 58 C-82.23653532 51.03043729 -82.107525 44.06080852 -82 37 C-64.59617626 34.95206363 -64.59617626 34.95206363 -59.07080078 38.09863281 C-55.78624174 40.99482511 -53.44840312 44.54005651 -51.14111328 48.23388672 C-49.37691177 50.96436035 -47.28213836 53.39387153 -45.1875 55.875 C-44.47078125 56.75800781 -43.7540625 57.64101562 -43.015625 58.55078125 C-41.19661269 60.76109272 -39.33134726 62.91643476 -37.4375 65.0625 C-35 68 -35 68 -35 70 C-33.02 69.34 -31.04 68.68 -29 68 C-31.76552022 61.81396793 -35.09475132 56.16647189 -38.875 50.5625 C-39.30578857 49.91966064 -39.73657715 49.27682129 -40.18041992 48.61450195 C-42.15740725 45.67816528 -44.1612496 42.77740238 -46.23828125 39.91015625 C-51.52772026 32.35230051 -51.52772026 32.35230051 -51.125 27.5625 C-50.79167702 26.03199197 -50.41152107 24.51136013 -50 23 C-49.7834375 21.94683594 -49.566875 20.89367187 -49.34375 19.80859375 C-48.00482888 13.64519056 -48.00482888 13.64519056 -47 11 C-42.86473784 9.62157928 -40.00462272 10.98449297 -36.0625 12.375 C-35.34642578 12.59027344 -34.63035156 12.80554688 -33.89257812 13.02734375 C-30.90346334 14.08558457 -28.68890748 15.04150777 -26.80712891 17.65966797 C-25.68715698 20.06453329 -24.83996645 22.48242978 -24 25 C-23.56115479 26.21445801 -23.12230957 27.42891602 -22.67016602 28.68017578 C-21.41180348 32.17066938 -20.1974598 35.67472913 -18.99853516 39.18603516 C-18.24376567 41.39323124 -17.47968036 43.59705612 -16.71484375 45.80078125 C-16.23121293 47.20814174 -15.74812013 48.61568725 -15.265625 50.0234375 C-15.03756165 50.67968109 -14.80949829 51.33592468 -14.57452393 52.01205444 C-13.62325724 54.81738083 -13 57.01299578 -13 60 C-11.68 59.67 -10.36 59.34 -9 59 C-9.40957064 51.18582336 -9.91327902 43.41209922 -10.78833008 35.63549805 C-11.14447267 32.45558551 -11.46452423 29.27252509 -11.78027344 26.08837891 C-11.97074843 24.27801993 -12.20417384 22.47227818 -12.4453125 20.66796875 C-12.82243179 16.31893174 -12.78349287 14.03555923 -10.09375 10.48046875 C-7.6875 8.0625 -7.6875 8.0625 -5.26171875 5.97265625 C-3.14137218 4.12330388 -1.59374547 2.30551529 0 0 Z M-3.25 74.625 C-5.49369241 77.67001113 -5.5518663 79.29461199 -5 83 C-4.06402685 85.01951062 -4.06402685 85.01951062 -2 86 C1.5 86.58333333 1.5 86.58333333 5 86 C7.37466282 83.93174529 7.88685647 82.56571765 8.5 79.5 C8.19085817 76.7772464 8.19085817 76.7772464 5.75 74.6875 C2.22856034 72.52661657 0.18761278 72.14227966 -3.25 74.625 Z M-27.8125 84.1875 C-29.40882057 86.62398929 -30 88.05861032 -30 91 C-28.06307631 94.02033737 -28.06307631 94.02033737 -25 96 C-21.84627591 96.33550847 -21.84627591 96.33550847 -19 95 C-16.84745634 92.85701707 -16.84745634 92.85701707 -16 90 C-16.81204413 86.82564566 -17.68180575 85.31819425 -20 83 C-24.12830046 82.55537992 -24.12830046 82.55537992 -27.8125 84.1875 Z M19.125 84.0625 C17.33764697 87.14071911 17.56613258 89.52906068 18 93 C19.5 95.16666667 19.5 95.16666667 22 96 C25.4803645 95.92897215 27.29485909 95.61415498 29.9375 93.3125 C31.39615475 90.13778084 31.00471852 88.30121799 30 85 C26.31852809 82.54568539 23.14584048 81.78402373 19.125 84.0625 Z M-5.375 105.5625 C-7.50903182 108.76354773 -7.86339823 111.17515054 -8 115 C-6.89791992 118.39808026 -6.07902124 118.94731917 -3 121 C2.56939351 121.61537569 2.56939351 121.61537569 7.4375 119.375 C9.37231132 116.4340868 9.92809193 114.52349544 10 111 C8.39588152 107.47093933 7.25840638 106.17227092 4 104 C0.15234549 103.58025587 -2.09631706 103.40547175 -5.375 105.5625 Z M-37.4375 108.1875 C-39.22529278 110.84647339 -39.22529278 110.84647339 -38.9375 113.625 C-37.90737836 116.23464149 -37.35055139 117.45998357 -35 119 C-32.04279372 119.66680368 -32.04279372 119.66680368 -29 119 C-26.4285061 116.9315113 -26.4285061 116.9315113 -25 114 C-25.06892419 111.10518392 -25.61138683 109.59314642 -27.1875 107.1875 C-31.07181098 104.6426066 -34.09074686 105.1840036 -37.4375 108.1875 Z M28 109 C26.91431497 110.84267868 26.91431497 110.84267868 27 113 C28.14786941 115.24356294 29.2095767 117.2095767 31 119 C33.87306228 119.50095023 33.87306228 119.50095023 37 119 C39.5714939 116.9315113 39.5714939 116.9315113 41 114 C40.9303003 111.07261258 40.40278716 109.58404138 38.75 107.1875 C34.73657145 104.46410206 31.22198289 105.77801711 28 109 Z M-25.75 130.5625 C-28.38358966 132.88402911 -28.38358966 132.88402911 -28.125 136.5625 C-27.28614026 140.07614042 -27.28614026 140.07614042 -24.75 142.0625 C-22.03151821 143.26919473 -22.03151821 143.26919473 -19.3125 142.3125 C-16.90339298 141.08067898 -16.90339298 141.08067898 -15 139 C-14.4161804 136.0850745 -14.4161804 136.0850745 -15 133 C-17.20488259 130.53583866 -17.20488259 130.53583866 -20 129 C-23.09242093 128.7529953 -23.09242093 128.7529953 -25.75 130.5625 Z M20.125 131.0625 C17.7186361 133.81855571 17.7186361 133.81855571 17.875 137.125 C18.79825521 140.12538999 18.79825521 140.12538999 21.25 142 C23.96202346 143.27886888 23.96202346 143.27886888 26.6875 142.3125 C29.09660702 141.08067898 29.09660702 141.08067898 31 139 C31.44462008 134.87169954 31.44462008 134.87169954 29.8125 131.1875 C25.89151508 128.61857884 24.03824205 128.25517418 20.125 131.0625 Z M-3.375 141.5625 C-5.34359806 144.01459258 -5.34359806 144.01459258 -4.9375 147.625 C-4.3249155 151.25516924 -4.3249155 151.25516924 -1 153 C2.57176115 152.91832511 2.57176115 152.91832511 6 152 C8.36139302 149.10538099 8.36139302 149.10538099 7.8125 145.4375 C7.35160238 141.74174248 7.35160238 141.74174248 4 140 C0.72064281 139.49548351 -0.58165416 139.72477247 -3.375 141.5625 Z " fill="#000000" transform="translate(176,53)"/>
<path d="M0 0 C1.04124023 0.24943359 1.04124023 0.24943359 2.10351562 0.50390625 C26.14102331 6.45269367 46.88943464 18.27016389 65 35 C65.88171875 35.79921875 66.7634375 36.5984375 67.671875 37.421875 C92.94277107 61.4050821 108.24236802 96.66467871 109.203125 131.42578125 C109.71208392 169.44952201 98.96620366 203.03368636 74 232 C73.08927734 233.09441406 73.08927734 233.09441406 72.16015625 234.2109375 C49.58752228 260.92956546 15.14235185 275.51445692 -18.9375 279.6875 C-56.75066316 282.63479464 -94.59888511 271.84039744 -123.609375 247.0859375 C-124.39828125 246.39757812 -125.1871875 245.70921875 -126 245 C-126.72703125 244.39414062 -127.4540625 243.78828125 -128.203125 243.1640625 C-132.96537266 239.14705207 -137.06075894 234.82091925 -141 230 C-141.76183594 229.08734375 -142.52367187 228.1746875 -143.30859375 227.234375 C-167.27602567 197.47138622 -177.37676566 159.59901381 -173.5390625 121.7578125 C-170.47430222 96.94321893 -161.37745888 72.81378773 -146 53 C-145.28199219 52.0615625 -144.56398438 51.123125 -143.82421875 50.15625 C-120.49809359 20.65678088 -88.25374347 3.31061927 -51.35546875 -2.58203125 C-34.51573716 -4.54128704 -16.49399586 -4.03999513 0 0 Z M-36.13671875 8.125 C-36.97847656 9.07375 -37.82023437 10.0225 -38.6875 11 C-39.13230713 11.49894775 -39.57711426 11.99789551 -40.03540039 12.51196289 C-41.36224882 14.00326308 -42.68121712 15.50156257 -44 17 C-45.04414063 18.17369141 -45.04414063 18.17369141 -46.109375 19.37109375 C-48.87603297 22.49836312 -51.52304991 25.63578421 -54 29 C-58.38878997 28.42589927 -61.95992112 27.32377498 -65.984375 25.49609375 C-67.08394531 25.00302734 -68.18351562 24.50996094 -69.31640625 24.00195312 C-70.44949219 23.48568359 -71.58257812 22.96941406 -72.75 22.4375 C-75.01416923 21.4121439 -77.27972514 20.38984248 -79.546875 19.37109375 C-80.54557617 18.91661865 -81.54427734 18.46214355 -82.57324219 17.99389648 C-84.87139848 16.87366581 -84.87139848 16.87366581 -87 17 C-88.43008021 21.07306621 -89.85407095 25.14819426 -91.27246094 29.2253418 C-91.75581792 30.61199243 -92.24083311 31.99806621 -92.72753906 33.38354492 C-93.42689953 35.37529498 -94.12026718 37.36904455 -94.8125 39.36328125 C-95.23144531 40.56251221 -95.65039062 41.76174316 -96.08203125 42.99731445 C-97.14617939 45.95484259 -97.14617939 45.95484259 -97 49 C-98.28132813 48.9278125 -99.56265625 48.855625 -100.8828125 48.78125 C-110.93646874 48.23494032 -120.9287978 47.84993242 -131 48 C-131.12401528 55.54104739 -130.78877509 62.93265737 -130.0625 70.4375 C-129.93198242 71.88672852 -129.93198242 71.88672852 -129.79882812 73.36523438 C-129.42691866 77.34053333 -129.0596869 81.14109829 -128 85 C-129.25683594 85.39832031 -130.51367188 85.79664062 -131.80859375 86.20703125 C-137.36389864 88.05879955 -142.69857819 90.34708318 -148.0625 92.6875 C-149.50399414 93.31108398 -149.50399414 93.31108398 -150.97460938 93.94726562 C-153.31787486 94.96151487 -155.65960887 95.97914002 -158 97 C-156.81790971 99.41944713 -155.63042316 101.83589309 -154.4375 104.25 C-154.08123535 104.97348633 -153.7249707 105.69697266 -153.35791016 106.44238281 C-150.56781187 112.03738752 -147.4668646 117.30413079 -144.0546875 122.546875 C-143 125 -143 125 -143.640625 127.11328125 C-144.98483714 128.97895499 -146.34074753 130.72386975 -147.875 132.4375 C-148.48214844 133.12070313 -149.08929688 133.80390625 -149.71484375 134.5078125 C-151.5029736 136.45794386 -153.30772517 138.38575787 -155.12890625 140.3046875 C-155.67369629 140.8829126 -156.21848633 141.4611377 -156.77978516 142.05688477 C-157.87559481 143.21741013 -158.97805673 144.37169386 -160.08740234 145.51928711 C-163.29533793 148.69860264 -163.29533793 148.69860264 -164 153 C-162.08789175 154.87592462 -162.08789175 154.87592462 -159.546875 156.6875 C-158.15275391 157.73550781 -158.15275391 157.73550781 -156.73046875 158.8046875 C-155.74691406 159.52914062 -154.76335937 160.25359375 -153.75 161 C-152.78191406 161.72445312 -151.81382812 162.44890625 -150.81640625 163.1953125 C-148.21702039 165.13857752 -145.60927753 167.07005467 -143 169 C-141.66578785 169.99882718 -140.33213045 170.99839816 -139 172 C-140.38893381 178.85347644 -142.34149297 185.33296646 -144.625 191.9375 C-145.26570293 193.79986069 -145.90385858 195.66310032 -146.5390625 197.52734375 C-146.81959473 198.33937256 -147.10012695 199.15140137 -147.38916016 199.98803711 C-148.09683669 201.96851632 -148.09683669 201.96851632 -148 204 C-143.94462159 205.00279556 -139.8878146 205.99952558 -135.82958984 206.99072266 C-134.44995189 207.32858656 -133.07071411 207.66808901 -131.69189453 208.00927734 C-129.70709142 208.50011186 -127.72091201 208.98498744 -125.734375 209.46875 C-124.54038086 209.76201172 -123.34638672 210.05527344 -122.11621094 210.35742188 C-118.87736571 211.13463734 -118.87736571 211.13463734 -115 211 C-114.9498877 211.56807373 -114.89977539 212.13614746 -114.84814453 212.72143555 C-114.61137347 215.37719082 -114.36819438 218.03232551 -114.125 220.6875 C-114.04636719 221.58017578 -113.96773437 222.47285156 -113.88671875 223.39257812 C-113.21564995 230.64528326 -112.16944711 237.81184625 -111 245 C-110.14768799 244.84853516 -109.29537598 244.69707031 -108.41723633 244.54101562 C-105.240254 243.97852641 -102.06262749 243.41987188 -98.88452148 242.86376953 C-97.51185714 242.62278098 -96.13945616 242.38028706 -94.76733398 242.13623047 C-92.78960765 241.78473032 -90.81082755 241.43917579 -88.83203125 241.09375 C-87.64327393 240.88427734 -86.4545166 240.67480469 -85.22973633 240.45898438 C-82.42318587 240.0601398 -79.82694707 239.90677833 -77 240 C-76.61666504 240.68102783 -76.23333008 241.36205566 -75.83837891 242.0637207 C-74.10179406 245.14732933 -72.36341842 248.22992473 -70.625 251.3125 C-70.02171875 252.38435547 -69.4184375 253.45621094 -68.796875 254.56054688 C-68.21679688 255.58857422 -67.63671875 256.61660156 -67.0390625 257.67578125 C-66.50490723 258.62364502 -65.97075195 259.57150879 -65.42041016 260.5480957 C-64.34501283 262.40444072 -63.19002214 264.21496679 -62 266 C-58.36210749 264.6800567 -55.44577388 263.07570775 -52.3125 260.8125 C-51.44882813 260.19632813 -50.58515625 259.58015625 -49.6953125 258.9453125 C-48.80585938 258.30335938 -47.91640625 257.66140625 -47 257 C-45.23259898 255.72439752 -43.4618685 254.45339275 -41.6875 253.1875 C-40.90761719 252.62417969 -40.12773437 252.06085938 -39.32421875 251.48046875 C-36.87323031 249.9192509 -34.81756123 248.74152226 -32 248 C-29.92285156 248.87109375 -29.92285156 248.87109375 -27.890625 250.4375 C-27.13523438 251.00339844 -26.37984375 251.56929687 -25.6015625 252.15234375 C-24.82554687 252.76207031 -24.04953125 253.37179687 -23.25 254 C-21.71479577 255.16831644 -20.17833771 256.33498715 -18.640625 257.5 C-17.88458984 258.07878906 -17.12855469 258.65757812 -16.34960938 259.25390625 C-12.66827471 261.98966119 -8.84661273 264.50415858 -5 267 C-4.58637207 266.25838623 -4.17274414 265.51677246 -3.74658203 264.75268555 C-2.20817918 261.99578642 -0.668672 259.23950783 0.87158203 256.48364258 C1.53738882 255.29183222 2.20275769 254.0997771 2.86767578 252.9074707 C3.82468742 251.19157316 4.78341652 249.47663386 5.7421875 247.76171875 C6.3182373 246.73006592 6.89428711 245.69841309 7.48779297 244.63549805 C8.58938152 242.7156323 9.77219623 240.84170566 11 239 C22.00481116 241.31124499 33.00705546 243.63284065 44 246 C45.36604223 238.71928554 46.34575594 231.42571991 47.125 224.0625 C47.25624268 222.83793091 47.25624268 222.83793091 47.39013672 221.58862305 C47.78896513 217.70024666 48.04016135 213.91316783 48 210 C48.65846924 209.95174072 49.31693848 209.90348145 49.99536133 209.85375977 C56.98984215 209.28683934 63.79743185 208.25055676 70.6875 206.9375 C71.68716797 206.75123047 72.68683594 206.56496094 73.71679688 206.37304688 C76.14541301 205.91986013 78.57307351 205.46213408 81 205 C80.42834741 200.23974086 79.4748238 195.94701652 77.93359375 191.41015625 C77.53076172 190.21455078 77.12792969 189.01894531 76.71289062 187.78710938 C76.29201172 186.55798828 75.87113281 185.32886719 75.4375 184.0625 C75.00790487 182.79380883 74.57886341 181.52493004 74.15039062 180.25585938 C73.10568206 177.16868688 72.05540218 174.08352965 71 171 C71.74709229 170.72526855 72.49418457 170.45053711 73.26391602 170.16748047 C75.78549889 169.09152711 77.6195935 167.98259211 79.77734375 166.3203125 C80.45603516 165.80339844 81.13472656 165.28648437 81.83398438 164.75390625 C82.87522461 163.94759766 82.87522461 163.94759766 83.9375 163.125 C88.53815367 159.59396609 93.13120995 156.15442736 98 153 C96.49680489 147.64615439 92.89509424 144.37759184 89.125 140.5 C86.73619427 138.01268682 84.36094277 135.51376846 82 133 C81.17242187 132.1234375 80.34484375 131.246875 79.4921875 130.34375 C78 128 78 128 78.27050781 125.63061523 C78.99140116 123.03100822 79.90148522 120.93622146 81.1796875 118.56640625 C81.61410156 117.75236328 82.04851562 116.93832031 82.49609375 116.09960938 C82.95113281 115.26236328 83.40617188 114.42511719 83.875 113.5625 C84.76872018 111.89739887 85.66196045 110.23204005 86.5546875 108.56640625 C86.97588867 107.78152832 87.39708984 106.99665039 87.83105469 106.18798828 C90.78290357 101.34381794 90.78290357 101.34381794 92 96 C88.07029033 94.28405593 84.13757047 92.57526954 80.2019043 90.87304688 C78.86348841 90.29297474 77.52591464 89.7109555 76.18920898 89.12695312 C74.26764537 88.28782991 72.34316156 87.4557568 70.41796875 86.625 C69.26063232 86.12226562 68.1032959 85.61953125 66.91088867 85.1015625 C64.05108933 83.82303355 64.05108933 83.82303355 61 84 C61.33 83.34 61.66 82.68 62 82 C62.29169227 80.03029899 62.53498134 78.05332924 62.75390625 76.07421875 C62.88603516 74.88505859 63.01816406 73.69589844 63.15429688 72.47070312 C63.35635742 70.59801758 63.35635742 70.59801758 63.5625 68.6875 C63.70107422 67.45064453 63.83964844 66.21378906 63.98242188 64.93945312 C64.81193059 57.48759019 64.81193059 57.48759019 65 50 C57.0800587 49.12504821 49.2765687 48.87409958 41.3125 48.9375 C40.21744141 48.94201172 39.12238281 48.94652344 37.99414062 48.95117188 C35.32936691 48.96280844 32.66471483 48.97915436 30 49 C29.83105225 48.28328125 29.66210449 47.5665625 29.48803711 46.828125 C27.09400384 36.76002811 24.02503606 26.89264583 21 17 C16.81659203 17.66125941 13.26581569 19.03994297 9.38671875 20.72265625 C8.46509697 21.12006264 8.46509697 21.12006264 7.52485657 21.52549744 C5.57706836 22.36662338 3.63227882 23.21444259 1.6875 24.0625 C0.36152097 24.63651339 -0.96464905 25.2100858 -2.29101562 25.78320312 C-5.52956966 27.18370572 -8.76547053 28.59022322 -12 30 C-12.449198 29.06075684 -12.449198 29.06075684 -12.9074707 28.10253906 C-14.08493735 25.83654068 -15.33594735 24.49562859 -17.1875 22.75 C-21.93331312 18.14260643 -26.27436421 13.23866265 -30.3125 8 C-30.869375 7.34 -31.42625 6.68 -32 6 C-34.26590078 5.76494676 -34.26590078 5.76494676 -36.13671875 8.125 Z " fill="#000000" transform="translate(210,28)"/>
<path d="M0 0 C0.75037033 -0.00988449 1.50074066 -0.01976898 2.27384949 -0.029953 C33.87722432 -0.36033312 63.00248954 4.36698799 90.8984375 20.23828125 C92.0225 20.87507813 93.1465625 21.511875 94.3046875 22.16796875 C132.50985211 44.81817348 159.38020892 81.29051943 170.87109375 124.05078125 C181.84834898 167.51299437 174.36512355 212.58512724 152.1875 251.21875 C129.32836621 288.40508736 93.06346857 315.1531871 50.8984375 326.23828125 C50.11033691 326.45000977 49.32223633 326.66173828 48.51025391 326.87988281 C35.81046895 330.13412212 23.18527731 330.62633851 10.1484375 330.67578125 C9.37759827 330.68204529 8.60675903 330.68830933 7.81256104 330.69476318 C-7.37721663 330.77281295 -22.13903937 328.82011675 -36.7265625 324.48828125 C-37.60135254 324.23224121 -38.47614258 323.97620117 -39.37744141 323.71240234 C-47.61239896 321.22073818 -55.38839885 318.03278933 -63.1015625 314.23828125 C-63.73255859 313.93164551 -64.36355469 313.62500977 -65.01367188 313.30908203 C-96.89608295 297.63600074 -121.86985084 271.6279506 -138.1015625 240.23828125 C-138.42108887 239.6251709 -138.74061523 239.01206055 -139.06982422 238.38037109 C-158.86137054 199.86289752 -160.60162848 153.14156811 -147.6015625 112.23828125 C-139.41878593 88.12165679 -125.97295434 68.01130625 -109.1015625 49.23828125 C-108.49957031 48.5628125 -107.89757812 47.88734375 -107.27734375 47.19140625 C-101.56649867 41.14970617 -94.75357515 36.18865662 -88.1015625 31.23828125 C-87.52937988 30.81111816 -86.95719727 30.38395508 -86.36767578 29.94384766 C-61.86592699 11.94586671 -30.55053712 0.33203513 0 0 Z M-100.1015625 61.23828125 C-100.67003906 61.76164062 -101.23851562 62.285 -101.82421875 62.82421875 C-120.96550794 80.86193461 -132.72622366 107.14482672 -139.1015625 132.23828125 C-139.28235352 132.94194824 -139.46314453 133.64561523 -139.64941406 134.37060547 C-148.42700955 170.46694 -140.65320331 211.2382879 -121.9765625 242.921875 C-101.25986272 276.73705598 -69.00621151 302.8973908 -30.2265625 312.80859375 C11.1156832 322.68872432 52.27988228 317.08832331 88.8984375 295.23828125 C98.49161801 289.27683692 106.79282371 282.06127253 114.8984375 274.23828125 C115.75050781 273.449375 116.60257812 272.66046875 117.48046875 271.84765625 C128.52658631 261.34079797 136.86008242 248.68603201 143.8984375 235.23828125 C144.50429688 234.08070313 145.11015625 232.923125 145.734375 231.73046875 C162.96292374 197.50644146 165.13392921 156.61954603 153.8984375 120.23828125 C140.91041619 81.29613187 113.64382343 49.04967774 77.09814453 30.31738281 C17.00422156 0.83734513 -53.57738039 13.48977855 -100.1015625 61.23828125 Z " fill="#000000" transform="translate(168.1015625,-0.23828125)"/>
<path d="M0 0 C5.94 0 11.88 0 18 0 C22.5168244 9.57520682 26.87774734 19.19050667 31.05307007 28.91873169 C32.75607372 32.88658915 34.46659021 36.85121115 36.17578125 40.81640625 C36.73366081 42.11151375 36.73366081 42.11151375 37.30281067 43.43278503 C40.51533792 50.88678325 43.74595428 58.33286368 46.98046875 65.77734375 C47.49344513 66.95816528 48.00642151 68.13898682 48.53494263 69.35559082 C50.59130018 74.0886596 52.64789625 78.82162396 54.70581055 83.55401611 C56.15232193 86.88071928 57.59772769 90.20790105 59.04296875 93.53515625 C59.46950241 94.51516098 59.89603607 95.49516571 60.335495 96.50486755 C63.29074253 103.3114798 66.1451678 110.14840273 69 117 C69.33 78.39 69.66 39.78 70 0 C75.94 0 81.88 0 88 0 C88 52.8 88 105.6 88 160 C82.06 160 76.12 160 70 160 C66.02849086 152.31826523 62.55529871 144.47612032 59.18502808 136.51919556 C57.54347386 132.64507616 55.89047989 128.77583908 54.23828125 124.90625 C53.89309952 124.09730789 53.54791779 123.28836578 53.192276 122.45491028 C49.31903597 113.38782831 45.38206479 104.34873114 41.4375 95.3125 C41.11680542 94.57746246 40.79611084 93.84242493 40.46569824 93.08511353 C33.32384984 76.71757551 26.15774843 60.36056785 19 44 C18.67 82.28 18.34 120.56 18 160 C12.06 160 6.12 160 0 160 C0 107.2 0 54.4 0 0 Z " fill="#000000" transform="translate(670,85)"/>
<path d="M0 0 C60.42257218 0 60.42257218 0 71 10 C77.21708601 16.21708601 79.43749999 24.53595823 79.54211426 33.11386108 C79.53401733 34.09077911 79.52592041 35.06769714 79.51757812 36.07421875 C79.5245874 37.13250885 79.53159668 38.19079895 79.53881836 39.28115845 C79.55630278 42.75021255 79.54480903 46.21843882 79.53125 49.6875 C79.53394764 52.11548009 79.53783233 54.54345913 79.54284668 56.97143555 C79.54872883 62.04844496 79.54021982 67.12517197 79.52148438 72.20214844 C79.49869613 78.69171124 79.51182604 85.1806122 79.53577423 91.67015076 C79.55026666 96.68034807 79.54561033 101.69038991 79.53526306 106.70059204 C79.53260532 109.09266235 79.5358318 111.48474703 79.54518127 113.87680054 C79.55540332 117.22683813 79.53976561 120.57582164 79.51757812 123.92578125 C79.52567505 124.90269928 79.53377197 125.87961731 79.54211426 126.88613892 C79.42675745 136.34488196 76.59952373 144.30470718 70.05078125 151.24609375 C51.72839436 166.91609701 19.20695445 160 0 160 C0 107.2 0 54.4 0 0 Z M18 16 C18 58.24 18 100.48 18 144 C44.16764723 146.16153238 44.16764723 146.16153238 55 140 C58.78962957 136.01091624 61.23594882 132.27229427 61.28088379 126.70722961 C61.29230408 125.85649368 61.30372437 125.00575775 61.31549072 124.12924194 C61.31772644 123.20398712 61.31996216 122.2787323 61.32226562 121.32543945 C61.33219543 120.34444778 61.34212524 119.36345612 61.35235596 118.35273743 C61.38157243 115.10622348 61.3951998 111.85990509 61.40625 108.61328125 C61.41775683 106.3536936 61.42927225 104.094106 61.4407959 101.83451843 C61.46180942 97.09417817 61.47349839 92.35390567 61.48046875 87.61352539 C61.49142542 81.55174885 61.53945389 75.49087372 61.59641266 69.42937946 C61.63374378 64.75979537 61.6440808 60.09042648 61.6471405 55.4207058 C61.653179 53.1868517 61.66918711 50.95300075 61.69551086 48.71929359 C61.72979414 45.58601928 61.72583489 42.45492126 61.71289062 39.3215332 C61.73132019 38.40639954 61.74974976 37.49126587 61.76873779 36.54840088 C61.69316802 30.6807769 60.28508168 26.88664572 57.06868744 21.9965086 C46.04358198 11.35608152 33.20582864 16 18 16 Z " fill="#000000" transform="translate(806,85)"/>
<path d="M0 0 C1.12591553 0.00523682 2.25183105 0.01047363 3.41186523 0.01586914 C4.62680664 0.0190918 5.84174805 0.02231445 7.09350586 0.02563477 C8.37290039 0.03401367 9.65229492 0.04239258 10.97045898 0.05102539 C12.2537207 0.05553711 13.53698242 0.06004883 14.85913086 0.06469727 C18.04211921 0.07652994 21.22501661 0.09301471 24.40795898 0.11352539 C24.52758436 0.64503078 24.64720974 1.17653618 24.77046013 1.7241478 C27.73598828 14.90008312 30.70204799 28.07589869 33.66862297 41.25159836 C35.38238431 48.86315336 37.09577969 56.47479061 38.80887985 64.08649445 C39.91768691 69.01262553 41.02696974 73.93864944 42.13626862 78.8646698 C42.96144619 82.53006876 43.78588513 86.19563335 44.61029053 89.86120605 C47.20233686 101.37875347 49.81008395 112.89228214 52.4597168 124.39672852 C52.93366836 126.45996648 53.40755723 128.52321885 53.88137817 130.58648682 C54.75501826 134.39026975 55.63557526 138.19235774 56.52023315 141.99359131 C56.90771763 143.67836466 57.29495078 145.36319584 57.68188477 147.0480957 C57.85891056 147.79961159 58.03593636 148.55112747 58.21832657 149.32541656 C59.07852524 153.09959764 59.40795898 156.18961497 59.40795898 160.11352539 C53.46795898 160.11352539 47.52795898 160.11352539 41.40795898 160.11352539 C40.26552622 155.32703812 39.12514383 150.54015842 37.98999023 145.75195312 C37.6031767 144.12308522 37.21516321 142.49450179 36.82592773 140.86621094 C36.2667808 138.52620956 35.71195184 136.18522035 35.15795898 133.84399414 C34.98296875 133.1157695 34.80797852 132.38754486 34.62768555 131.63725281 C33.94145254 128.72173336 33.40795898 126.12053641 33.40795898 123.11352539 C18.22795898 123.11352539 3.04795898 123.11352539 -12.59204102 123.11352539 C-13.58204102 129.05352539 -13.58204102 129.05352539 -14.59204102 135.11352539 C-15.06424644 137.33375054 -15.56037048 139.5493067 -16.09985352 141.75415039 C-16.36411133 142.8434082 -16.62836914 143.93266602 -16.90063477 145.05493164 C-17.17004883 146.14676758 -17.43946289 147.23860352 -17.71704102 148.36352539 C-17.99418945 149.50176758 -18.27133789 150.64000977 -18.55688477 151.81274414 C-19.23140799 154.58061529 -19.9111676 157.34720949 -20.59204102 160.11352539 C-26.53204102 160.11352539 -32.47204102 160.11352539 -38.59204102 160.11352539 C-37.94151157 152.80602912 -36.5379158 145.83551985 -34.89575195 138.69091797 C-34.62078384 137.47648514 -34.34581573 136.26205231 -34.06251526 135.01081848 C-33.31170154 131.69922798 -32.55652745 128.38869046 -31.79936123 125.07855058 C-31.00135348 121.58497425 -30.20903493 118.0901079 -29.41607666 114.59538269 C-27.91023414 107.96278157 -26.39935575 101.33133837 -24.88663602 94.70030278 C-23.18451965 87.23795052 -21.48793709 79.77434401 -19.79187727 72.31061327 C-17.71473302 63.17022326 -15.63658856 54.0300617 -13.55438232 44.89082336 C-13.26211887 43.6079478 -12.96985542 42.32507223 -12.6687355 41.00332165 C-12.10240259 38.51892641 -11.53559241 36.03463992 -10.9682579 33.55047321 C-9.66434769 27.83829424 -8.36844296 22.12460211 -7.09362793 16.40585327 C-6.86212666 15.37201098 -6.63062538 14.3381687 -6.39210892 13.27299786 C-5.96213214 11.35056741 -5.53505766 9.42748466 -5.1114006 7.50365162 C-3.46320581 0.15168039 -3.46320581 0.15168039 0 0 Z M9.40795898 24.11352539 C7.05465884 34.32603037 4.70721564 44.53986213 2.36723328 54.75542736 C1.28049446 59.4989141 0.19174615 64.2419208 -0.90161133 68.98388672 C-1.95674928 73.56043051 -3.00658656 78.13816072 -4.05276489 82.71676064 C-4.45276476 84.46307961 -4.85467038 86.2089632 -5.2585144 87.9543972 C-5.82396515 90.39978678 -6.38261099 92.84663874 -6.93969727 95.29394531 C-7.10801056 96.01467728 -7.27632385 96.73540924 -7.44973755 97.47798157 C-8.28912674 101.20006062 -8.59204102 104.24246512 -8.59204102 108.11352539 C3.94795898 108.11352539 16.48795898 108.11352539 29.40795898 108.11352539 C28.73422111 102.72362237 27.95999658 97.60092935 26.765625 92.33642578 C26.60288086 91.60534607 26.44013672 90.87426636 26.27246094 90.12103271 C25.7396757 87.73348055 25.20117616 85.3472676 24.66186523 82.96118164 C24.28684912 81.29351341 23.91192688 79.62582407 23.53709412 77.95811462 C22.7539144 74.47860273 21.96750899 70.99983739 21.17919922 67.52148438 C20.16762282 63.05537558 19.16743567 58.58679792 18.16998386 54.11751652 C17.40104867 50.68054655 16.6245462 47.2453196 15.84586906 43.81054497 C15.47353718 42.1624626 15.1039696 40.51375326 14.73718452 38.86442757 C14.22594755 36.56935787 13.70421343 34.27692662 13.1796875 31.98486328 C13.02948654 31.29972153 12.87928558 30.61457977 12.72453308 29.90867615 C12.3491891 28.29419686 11.88677226 26.70039788 11.40795898 25.11352539 C10.74795898 24.78352539 10.08795898 24.45352539 9.40795898 24.11352539 Z " fill="#000000" transform="translate(576.592041015625,84.886474609375)"/>
<path d="M0 0 C23.43 0 46.86 0 71 0 C71 5.28 71 10.56 71 16 C53.84 16 36.68 16 19 16 C19 34.15 19 52.3 19 71 C32.86 71 46.72 71 61 71 C61 76.28 61 81.56 61 87 C47.14 87 33.28 87 19 87 C19 105.81 19 124.62 19 144 C37.15 144 55.3 144 74 144 C74 149.28 74 154.56 74 160 C49.58 160 25.16 160 0 160 C0 107.2 0 54.4 0 0 Z " fill="#000000" transform="translate(443,85)"/>
<path d="M0 0 C26.73 0 53.46 0 81 0 C81 18.375 81 18.375 76.625 25.8125 C76.23183594 26.53501953 75.83867188 27.25753906 75.43359375 28.00195312 C74.53905014 29.64378471 73.63192451 31.27879192 72.71582031 32.90869141 C64.32880963 48.01915373 56.68586084 63.52599499 49 79 C37.73214628 101.68565987 37.73214628 101.68565987 31.9375 112.625 C26.47131392 123.00383433 21.24593924 133.50812153 16 144 C36.79 144 57.58 144 79 144 C79 149.28 79 154.56 79 160 C51.61 160 24.22 160 -4 160 C-4 140.48017551 -4 140.48017551 -0.07421875 133.70703125 C0.34044647 132.92395096 0.75511169 132.14087067 1.18234253 131.33406067 C2.52791325 128.80860807 3.91943709 126.31201122 5.3125 123.8125 C6.27057158 122.03187198 7.22468854 120.24911109 8.17504883 118.46435547 C9.64120358 115.71340787 11.11025098 112.96439948 12.59288025 110.22229004 C17.25502168 101.59968913 21.64082747 92.85104474 25.98193359 84.06350708 C27.94409274 80.09463491 29.92004231 76.13267399 31.8984375 72.171875 C32.26289978 71.44214981 32.62736206 70.71242462 33.00286865 69.96058655 C36.05141367 63.87048295 39.19476227 57.83494743 42.40649414 51.8293457 C48.51926403 40.35051716 54.20777444 28.64123765 60 17 C30.3 16.505 30.3 16.505 0 16 C0 10.72 0 5.44 0 0 Z " fill="#000000" transform="translate(918,85)"/>
<path d="M0 0 C2.87963961 2.78365162 3.93144379 5.62680779 4.13142776 9.63251972 C4.13440243 10.69861564 4.13737709 11.76471155 4.14044189 12.8631134 C4.14900711 14.69899269 4.14900711 14.69899269 4.15774536 16.57196045 C4.1589907 17.93054189 4.1601158 19.28912345 4.16113281 20.64770508 C4.16576156 22.07681913 4.17078629 23.50593195 4.17617798 24.93504333 C4.1892988 28.81944172 4.19574635 32.70382282 4.20018864 36.58823991 C4.20311995 39.0153535 4.20722488 41.44246238 4.21169281 43.86957359 C4.22536708 51.4642808 4.23503401 59.05897722 4.2388947 66.65369588 C4.24337504 75.41910226 4.26092202 84.18435267 4.2898953 92.94971162 C4.31151601 99.72603386 4.32159919 106.50231222 4.32293582 113.27866858 C4.3239836 117.32541028 4.32988549 121.37200534 4.34775543 125.41871071 C4.36424285 129.22642616 4.36638847 133.03388486 4.35761642 136.84162331 C4.3568464 138.23719979 4.36118431 139.63279011 4.37107468 141.02833176 C4.38380886 142.93749097 4.37612032 144.84675349 4.36749268 146.75593567 C4.36895924 147.82316266 4.3704258 148.89038965 4.3719368 149.98995686 C3.91179169 153.71386005 2.71809555 157.28190445 0 160 C-6.20549582 160.58542413 -6.20549582 160.58542413 -9.375 158.25 C-12.17442032 154.37387956 -12.12712884 150.79463922 -12.14044189 146.09928894 C-12.14615204 144.89226822 -12.15186218 143.6852475 -12.15774536 142.44165039 C-12.15899062 141.10717784 -12.16011574 139.77270517 -12.16113281 138.43823242 C-12.16576308 137.03029755 -12.17078802 135.62236393 -12.17617798 134.21443176 C-12.18928361 130.39200694 -12.19574331 126.56959968 -12.20018864 122.7471559 C-12.20312224 120.35771878 -12.20722758 117.96828642 -12.21169281 115.5788517 C-12.2253627 108.09894209 -12.23503193 100.61904342 -12.2388947 93.13912219 C-12.2433748 84.51183601 -12.26092255 75.88470831 -12.2898953 67.25747031 C-12.31152737 60.58387147 -12.32159979 53.91031718 -12.32293582 47.23668367 C-12.32398273 43.25308117 -12.32986614 39.26962775 -12.34775543 35.28606224 C-12.36426267 31.5374251 -12.36637889 27.7890487 -12.35761642 24.04038811 C-12.35648188 22.01521786 -12.37017858 19.99005615 -12.3843689 17.9649353 C-12.35520698 11.60028008 -12.30170564 6.54285826 -9 1 C-5.9167365 -0.54163175 -3.39121901 -0.29747535 0 0 Z " fill="#89939D" transform="translate(403,85)"/>
</svg>
